<?xml version="1.0" encoding="UTF-8" standalone="no"?>
<!-- Created with Inkscape (http://www.inkscape.org/) -->

<svg
   xmlns:dc="http://purl.org/dc/elements/1.1/"
   xmlns:cc="http://creativecommons.org/ns#"
   xmlns:rdf="http://www.w3.org/1999/02/22-rdf-syntax-ns#"
   xmlns:svg="http://www.w3.org/2000/svg"
   xmlns="http://www.w3.org/2000/svg"
   xmlns:sodipodi="http://sodipodi.sourceforge.net/DTD/sodipodi-0.dtd"
   xmlns:inkscape="http://www.inkscape.org/namespaces/inkscape"
   width="57.57473mm"
   height="13.809572mm"
   viewBox="0 0 57.574729 13.809572"
   version="1.1"
   id="svg8"
   inkscape:version="0.92.3 (2405546, 2018-03-11)"
   sodipodi:docname="apalislogo.svg">
  <defs
     id="defs2">
    <inkscape:path-effect
       effect="spiro"
       id="path-effect844"
       is_visible="true" />
    <inkscape:path-effect
       effect="spiro"
       id="path-effect840"
       is_visible="true" />
  </defs>
  <sodipodi:namedview
     id="base"
     pagecolor="#ffffff"
     bordercolor="#666666"
     borderopacity="1.0"
     inkscape:pageopacity="0.0"
     inkscape:pageshadow="2"
     inkscape:zoom="2.8284271"
     inkscape:cx="43.458045"
     inkscape:cy="0.57752025"
     inkscape:document-units="mm"
     inkscape:current-layer="layer3"
     showgrid="false"
     inkscape:window-width="1680"
     inkscape:window-height="1050"
     inkscape:window-x="1920"
     inkscape:window-y="0"
     inkscape:window-maximized="1"
     fit-margin-left="0.1"
     fit-margin-top="0.1"
     fit-margin-right="0.1"
     fit-margin-bottom="0.1" />
  <metadata
     id="metadata5">
    <rdf:RDF>
      <cc:Work
         rdf:about="">
        <dc:format>image/svg+xml</dc:format>
        <dc:type
           rdf:resource="http://purl.org/dc/dcmitype/StillImage" />
        <dc:title></dc:title>
      </cc:Work>
    </rdf:RDF>
  </metadata>
  <g
     inkscape:groupmode="layer"
     id="layer3"
     inkscape:label="final"
     style="display:inline"
     transform="translate(-44.828,-96.260178)">
    <path
       style="opacity:1;fill:#ff6600;fill-opacity:1;stroke:none;stroke-width:0.17677669"
       d=""
       id="path1030"
       inkscape:connector-curvature="0"
       transform="scale(0.26458333)" />
    <path
       style="opacity:1;fill:#ff6600;fill-opacity:1;stroke:none;stroke-width:0.08838835"
       d=""
       id="path1079"
       inkscape:connector-curvature="0"
       transform="scale(0.26458333)" />
    <path
       style="opacity:1;fill:#ff6600;fill-opacity:1;stroke:none;stroke-width:0.00390625;stroke-opacity:1"
       d=""
       id="path1107"
       inkscape:connector-curvature="0"
       transform="scale(0.26458333)" />
    <path
       style="opacity:1;fill:#ff6600;fill-opacity:1;stroke:none;stroke-width:0.00390625;stroke-opacity:1"
       d=""
       id="path1109"
       inkscape:connector-curvature="0"
       transform="scale(0.26458333)" />
    <g
       id="g4840"
       transform="matrix(0.52450981,0,0,0.52450981,49.061467,35.190709)"
       inkscape:export-xdpi="404"
       inkscape:export-ydpi="404">
      <a
         id="a1131">
        <path
           style="display:inline;opacity:1;fill:#ff6600;fill-opacity:1;stroke:none;stroke-width:0.04677217"
           d="m 68.197372,141.71987 c -4.869368,-0.27179 -9.090613,-3.18112 -12.451051,-8.58142 -1.91353,-3.07509 -3.644874,-7.3111 -4.597577,-11.24871 -0.09647,-0.39873 -0.1943,-0.80281 -0.217393,-0.89795 -0.0231,-0.0951 -0.315663,-0.58975 -0.650155,-1.09914 -0.602641,-0.91775 -0.610851,-0.92755 -0.902856,-1.0783 -0.431266,-0.22264 -1.118669,-0.47649 -2.949049,-1.08902 l -1.632664,-0.54636 0.486746,-0.0247 c 1.119947,-0.0568 3.182207,0.086 4.205131,0.29114 0.244385,0.049 0.507479,0.082 0.584653,0.0732 0.07717,-0.009 0.382362,-0.10396 0.678196,-0.21158 0.670837,-0.24405 1.588936,-0.48137 2.291836,-0.59242 0.833202,-0.13163 2.536392,-0.12095 3.326361,0.0209 2.275173,0.40845 4.233026,1.43115 6.224309,3.25131 0.800608,0.73181 1.848694,1.9691 2.463766,2.90853 0.168426,0.25725 0.338653,0.4928 0.378288,0.52346 0.14042,0.1086 2.75441,1.01839 4.5388,1.57972 8.158414,2.56643 14.484429,3.538 18.381461,2.8231 0.295834,-0.0543 0.548405,-0.11357 0.561266,-0.13177 0.01286,-0.0182 0.04795,-0.0415 0.07797,-0.0518 0.03002,-0.0103 0.998207,-0.98034 2.151521,-2.15568 4.70939,-4.79929 8.460382,-8.33893 9.293259,-8.76963 0.34996,-0.18097 0.97166,0.16583 1.06649,0.59492 0.009,0.0426 -2.281734,2.61416 -5.646663,6.33763 -4.329523,4.79085 -5.870993,6.46543 -6.548101,7.11355 -0.891419,0.85326 -2.027849,1.899 -2.39108,2.20027 l -0.195873,0.16246 -0.996815,-0.39784 c -5.357913,-2.13841 -13.086816,-3.71132 -20.956839,-4.26492 l -0.456028,-0.0321 v 0.16926 0.16927 h 0.260194 c 0.38912,0 2.355231,0.17175 3.784306,0.33057 6.644701,0.73848 12.659045,2.09493 17.111625,3.85927 0.493324,0.19547 0.914078,0.37171 0.935009,0.39163 0.03785,0.036 -1.046152,0.95964 -2.072645,1.76597 -1.9034,1.49516 -4.192408,3.01325 -5.907532,3.91792 l -0.598887,0.31589 -0.453486,-0.0316 c -5.396322,-0.3767 -9.575779,-1.36918 -13.013409,-3.09024 l -0.783953,-0.39249 -0.05786,0.13968 c -0.03182,0.0768 -0.04976,0.14715 -0.03987,0.15628 0.0099,0.009 0.335913,0.17544 0.724485,0.36957 3.256883,1.62717 7.225927,2.62248 12.152477,3.04745 0.461187,0.0398 0.84606,0.0799 0.855271,0.0891 0.02609,0.0261 -1.110271,0.52903 -1.810727,0.80141 -2.493668,0.96967 -4.960202,1.40945 -7.202913,1.28428 z"
           id="path1028-6"
           inkscape:connector-curvature="0" />
      </a>
      <path
         sodipodi:nodetypes="cccccscccccc"
         inkscape:connector-curvature="0"
         id="path1111-2"
         d="m 79.860271,139.43703 c -0.694084,-0.0152 -2.015095,-0.0744 -2.03292,-0.0905 -0.0072,-0.006 0.113358,-0.22207 0.268115,-0.29488 2.095405,-1.09853 4.318855,-2.55655 6.515084,-4.31228 0.555591,-0.44595 1.305243,-0.9663 1.790346,-1.39511 0.0076,0 0.217238,0.0664 0.43925,0.16526 3.060134,1.36257 5.332701,2.92837 6.819009,4.69833 0.135583,0.16146 0.155061,0.19177 0.12977,0.20196 -0.05842,0.0235 -0.988431,0.17086 -1.799159,0.28503 -2.922302,0.41154 -5.902391,0.658 -8.913151,0.73712 -0.529664,0.0139 -2.660089,0.0173 -3.216341,0.005 z"
         style="display:inline;opacity:1;fill:#ff6600;fill-opacity:1;stroke:none;stroke-width:0.01653646;stroke-opacity:1" />
    </g>
    <g
       aria-label="Apalis"
       style="font-style:normal;font-variant:normal;font-weight:normal;font-stretch:normal;font-size:10.58333302px;line-height:125%;font-family:Sriracha;-inkscape-font-specification:Sriracha;letter-spacing:0px;word-spacing:0px;display:inline;fill:#000000;fill-opacity:1;stroke:none;stroke-width:0.26458332px;stroke-linecap:butt;stroke-linejoin:miter;stroke-opacity:1"
       id="text817">
      <path
         d="m 48.38875,99.672221 h 1.27 l 3.450167,7.799919 h -1.534584 l -0.719666,-1.64042 h -3.725334 q -0.148166,0.381 -0.359833,0.8255 -0.201083,0.4445 -0.359833,0.81492 H 44.928 Z m -0.73025,4.952999 h 2.677583 q -0.179916,-0.42333 -0.338666,-0.77258 -0.15875,-0.34925 -0.3175,-0.6985 -0.148167,-0.34925 -0.3175,-0.71967 -0.169334,-0.381 -0.370417,-0.84667 z"
         style="font-style:normal;font-variant:normal;font-weight:normal;font-stretch:normal;font-family:'Sonika PERSONAL USE';-inkscape-font-specification:'Sonika PERSONAL USE';fill:#333333;fill-opacity:1;stroke-width:0.26458332px"
         id="path4966"
         inkscape:connector-curvature="0"
         inkscape:export-xdpi="404"
         inkscape:export-ydpi="404" />
      <path
         d="m 53.251867,102.88955 q 0.60325,-0.53975 1.36525,-0.87841 0.772583,-0.33867 1.661583,-0.33867 0.783167,0 1.386417,0.23283 0.613833,0.23284 1.026583,0.64559 0.41275,0.40216 0.624417,0.9525 0.22225,0.55033 0.22225,1.17475 0,0.635 -0.22225,1.18533 -0.211667,0.53975 -0.624417,0.94192 -0.41275,0.40216 -1.026583,0.635 -0.60325,0.23283 -1.386417,0.23283 -0.465667,0 -0.878417,-0.0953 -0.412749,-0.0847 -0.793749,-0.24342 v 2.63525 h -1.354667 z m 4.92125,1.78859 q 0,-0.34925 -0.127,-0.65617 -0.116417,-0.3175 -0.359834,-0.53975 -0.232833,-0.23283 -0.592666,-0.37042 -0.34925,-0.13758 -0.814917,-0.13758 -0.465667,0 -0.889,0.10583 -0.423333,0.10584 -0.783166,0.30692 v 2.57175 q 0.359833,0.1905 0.783166,0.30692 0.423333,0.10583 0.889,0.10583 0.465667,0 0.814917,-0.127 0.359833,-0.13758 0.592666,-0.35983 0.243417,-0.23284 0.359834,-0.53975 0.127,-0.3175 0.127,-0.66675 z"
         style="font-style:normal;font-variant:normal;font-weight:normal;font-stretch:normal;font-family:'Sonika PERSONAL USE';-inkscape-font-specification:'Sonika PERSONAL USE';fill:#333333;stroke-width:0.26458332px"
         id="path4968"
         inkscape:connector-curvature="0"
         inkscape:export-xdpi="404"
         inkscape:export-ydpi="404" />
      <path
         d="m 65.938803,106.44555 c -0.402167,0.36689 -0.860778,0.66323 -1.375833,0.889 -0.508,0.22578 -1.058333,0.33867 -1.651,0.33867 -0.409222,0 -0.79375,-0.0423 -1.153583,-0.127 -0.359833,-0.0847 -0.673806,-0.21167 -0.941917,-0.381 -0.261055,-0.16933 -0.469194,-0.381 -0.624417,-0.635 -0.148167,-0.26105 -0.22225,-0.56444 -0.22225,-0.91017 0,-0.35983 0.07408,-0.67028 0.22225,-0.93133 0.148167,-0.26811 0.345722,-0.48684 0.592667,-0.65617 0.254,-0.16933 0.546806,-0.2928 0.878417,-0.37041 0.331611,-0.0847 0.680861,-0.127 1.04775,-0.127 0.395111,0 0.747888,0.0318 1.058333,0.0953 0.310445,0.0565 0.578556,0.13408 0.804333,0.23283 v -0.127 c 0,-0.20461 -0.112889,-0.48056 -0.338666,-0.62873 -0.218723,-0.15522 -0.560917,-0.23283 -1.026584,-0.23283 -0.437444,0 -0.885472,0.0564 -1.344083,0.16933 -0.458611,0.11289 -0.948972,0.32456 -1.471083,0.635 v -1.38641 c 0.402167,-0.23283 0.8255,-0.40922 1.27,-0.52917 0.4445,-0.127 0.959555,-0.1905 1.545166,-0.1905 0.409223,0 0.779639,0.0529 1.11125,0.15875 0.338667,0.10583 0.627945,0.26458 0.867834,0.47625 0.239889,0.21167 0.423333,0.57581 0.550333,0.89331 0.134055,0.31045 0.201083,0.67028 0.201083,1.0795 z m -4.614333,-0.8255 c 0,0.13406 0.04233,0.25048 0.127,0.34925 0.08467,0.0917 0.201083,0.16934 0.34925,0.23284 0.148167,0.0565 0.3175,0.0988 0.508,0.127 0.1905,0.0282 0.391583,0.0423 0.60325,0.0423 0.310445,0 0.60325,-0.0353 0.878417,-0.10583 0.282222,-0.0776 0.543277,-0.17992 0.783166,-0.30692 v -0.77258 c -0.331611,-0.14111 -0.652638,-0.24342 -0.963083,-0.30692 -0.303389,-0.0635 -0.589139,-0.0953 -0.85725,-0.0953 -0.416278,0 -0.758472,0.0741 -1.026583,0.22225 -0.268111,0.14111 -0.402167,0.34572 -0.402167,0.61383 z"
         style="font-style:normal;font-variant:normal;font-weight:normal;font-stretch:normal;font-family:'Sonika PERSONAL USE';-inkscape-font-specification:'Sonika PERSONAL USE';fill:#333333;stroke-width:0.26458332px"
         id="path4970"
         inkscape:connector-curvature="0"
         sodipodi:nodetypes="ccssccscccsccscsccccscccscsccssccccscss"
         inkscape:export-xdpi="404"
         inkscape:export-ydpi="404" />
      <path
         d="m 66.35701,99.375888 h 1.354667 v 8.096252 H 66.35701 Z"
         style="font-style:normal;font-variant:normal;font-weight:normal;font-stretch:normal;font-family:'Sonika PERSONAL USE';-inkscape-font-specification:'Sonika PERSONAL USE';fill:#333333;stroke-width:0.26458332px"
         id="path4972"
         inkscape:connector-curvature="0"
         inkscape:export-xdpi="404"
         inkscape:export-ydpi="404" />
      <path
         d="m 68.356928,101.87355 h 1.354667 v 5.59859 h -1.354667 z m -0.22225,-1.02658 q 0,-0.34925 0.254,-0.59267 0.254,-0.24341 0.624417,-0.24341 0.370417,0 0.624417,0.24341 0.254,0.24342 0.254,0.59267 0,0.35983 -0.254,0.60325 -0.254,0.24342 -0.624417,0.24342 -0.370417,0 -0.624417,-0.24342 -0.254,-0.24342 -0.254,-0.60325 z"
         style="font-style:normal;font-variant:normal;font-weight:normal;font-stretch:normal;font-family:'Sonika PERSONAL USE';-inkscape-font-specification:'Sonika PERSONAL USE';fill:#333333;stroke-width:0.26458332px"
         id="path4974"
         inkscape:connector-curvature="0"
         inkscape:export-xdpi="404"
         inkscape:export-ydpi="404" />
      <path
         d="m 75.014672,105.7153 q 0,-0.28575 -0.338667,-0.40216 -0.338667,-0.127 -0.846667,-0.1905 -0.507999,-0.0741 -1.100666,-0.127 -0.582083,-0.0635 -1.090083,-0.22225 -0.508,-0.16934 -0.846667,-0.46567 -0.338667,-0.30692 -0.338667,-0.86783 0,-0.43392 0.22225,-0.762 0.22225,-0.33867 0.60325,-0.56092 0.381,-0.22225 0.889,-0.32808 0.508,-0.11642 1.0795,-0.11642 0.433917,0 0.85725,0.0635 0.433917,0.0635 0.814917,0.16933 0.381,0.10584 0.6985,0.23284 0.328083,0.127 0.550333,0.254 v 1.38641 q -0.3175,-0.22225 -0.6985,-0.37041 -0.370417,-0.15875 -0.762,-0.254 -0.381,-0.0952 -0.762,-0.13759 -0.370417,-0.0423 -0.6985,-0.0423 -0.645583,0 -1.037166,0.11642 -0.391584,0.11641 -0.391584,0.29633 0,0.13758 0.1905,0.21167 0.201084,0.0741 0.518584,0.11641 0.328083,0.0317 0.73025,0.0635 0.412749,0.0318 0.836083,0.0953 0.433916,0.0635 0.836083,0.17992 0.41275,0.11642 0.73025,0.32808 0.328083,0.20109 0.518583,0.52917 0.201084,0.32808 0.201084,0.80433 0,0.4445 -0.232834,0.80434 -0.22225,0.35983 -0.624416,0.61383 -0.391584,0.254 -0.931334,0.39158 -0.529166,0.14817 -1.153583,0.14817 -0.402166,0 -0.8255,-0.0529 -0.41275,-0.0529 -0.8255,-0.15875 -0.402166,-0.10583 -0.783166,-0.254 -0.381,-0.15875 -0.6985,-0.34925 v -1.49225 q 0.41275,0.29634 0.836083,0.48684 0.433917,0.1905 0.836083,0.30691 0.41275,0.11642 0.783167,0.16934 0.370417,0.0423 0.677333,0.0423 0.328083,0 0.613833,-0.0423 0.28575,-0.0529 0.497417,-0.13759 0.211667,-0.0847 0.338667,-0.20108 0.127,-0.127 0.127,-0.27517 z"
         style="font-style:normal;font-variant:normal;font-weight:normal;font-stretch:normal;font-family:'Sonika PERSONAL USE';-inkscape-font-specification:'Sonika PERSONAL USE';fill:#333333;stroke-width:0.26458332px"
         id="path4976"
         inkscape:connector-curvature="0"
         inkscape:export-xdpi="404"
         inkscape:export-ydpi="404" />
    </g>
  </g>
</svg>
